<?xml version="1.0" encoding="utf-8"?>
<!-- Generator: Adobe Illustrator 25.4.1, SVG Export Plug-In . SVG Version: 6.00 Build 0)  -->
<svg version="1.1" id="Layer_1" xmlns="http://www.w3.org/2000/svg" xmlns:xlink="http://www.w3.org/1999/xlink" x="0px" y="0px"
	 viewBox="0 0 308.8 112.3" style="enable-background:new 0 0 308.8 112.3;" xml:space="preserve">
<g>
	<g>
		<path d="M12.4,108.2H6.5l-1.1,4.1H0l6-19.9h7l6.1,19.9h-5.7L12.4,108.2z M11.3,104l-1.8-7.2L7.6,104H11.3z"/>
		<path d="M20.2,108.5V96.3c0-2.6,1.3-3.9,3.9-3.9h7.6c2.6,0,3.8,1.3,3.8,3.9v3.7h-5.3v-2.6c0-0.4-0.1-0.5-0.5-0.5h-3.6
			c-0.4,0-0.5,0.1-0.5,0.5v10c0,0.4,0.1,0.5,0.5,0.5h3.6c0.4,0,0.5-0.1,0.5-0.5v-2.6h5.3v3.7c0,2.6-1.3,3.9-3.9,3.9h-7.6
			C21.5,112.3,20.2,111.1,20.2,108.5z"/>
		<path d="M41.8,97h-5v-4.5h15.3V97h-5v15.3h-5.3V97z"/>
		<path d="M54.3,92.4h5.3v19.9h-5.3V92.4z"/>
		<path d="M61.5,92.4h5.7l3.4,14.4L74,92.4h5.6l-6,19.9h-6.1L61.5,92.4z"/>
		<path d="M81.4,92.4h14v4.4h-8.6v3.1h6.8v4.4h-6.8v3.6h8.6v4.4h-14V92.4z"/>
		<path d="M103.2,92.4h5.4l2.2,13.5l3.2-13.5h5l3.2,13.5l2.2-13.5h5.1l-4.6,19.9h-5.5l-2.9-12.3l-2.9,12.3h-5.7L103.2,92.4z"/>
		<path d="M140.4,108.2h-5.9l-1.1,4.1H128l6-19.9h7l6.1,19.9h-5.7L140.4,108.2z M139.3,104l-1.8-7.2l-1.8,7.2H139.3z"/>
		<path d="M150.4,97h-5v-4.5h15.3V97h-5v15.3h-5.3V97z"/>
		<path d="M162.9,92.4h14v4.4h-8.6v3.1h6.9v4.4h-6.9v3.6h8.6v4.4h-14V92.4z"/>
		<path d="M196.1,112.3h-5.4l-3.4-6.6h-2.2v6.6h-5.3V92.4h11.7c2.6,0,3.9,1.3,3.9,3.9v5.2c0,2.2-0.9,3.4-2.7,3.8L196.1,112.3z
			 M189.4,101.5c0.4,0,0.5-0.1,0.5-0.5v-3.7c0-0.4-0.1-0.5-0.5-0.5h-4.3v4.7H189.4z"/>
		<path d="M204.7,108.5v-2.7h5.3v1.8c0,0.4,0.1,0.5,0.5,0.5h3.7c0.4,0,0.5-0.1,0.5-0.5v-1.7c0-0.3-0.1-0.4-0.6-0.5l-5.3-1.4
			c-2.8-0.8-4.1-1.3-4.1-4.1v-3.5c0-2.6,1.3-3.9,3.9-3.9h7.2c2.6,0,3.9,1.3,3.9,3.9v2.5h-5.3v-1.6c0-0.4-0.1-0.5-0.5-0.5h-3.3
			c-0.4,0-0.5,0.1-0.5,0.5v1.5c0,0.3,0.1,0.4,0.6,0.5l5.3,1.4c2.8,0.7,4.1,1.3,4.1,4.1v3.7c0,2.6-1.3,3.9-3.9,3.9h-7.6
			C206,112.3,204.7,111.1,204.7,108.5z"/>
		<path d="M223,92.4h11.6c2.6,0,3.9,1.3,3.9,3.9v6c0,2.6-1.3,3.9-3.9,3.9h-6.3v6.2H223V92.4z M232.6,101.8c0.4,0,0.5-0.1,0.5-0.5v-4
			c0-0.4-0.1-0.5-0.5-0.5h-4.3v5H232.6z"/>
		<path d="M240.7,108.5V96.3c0-2.6,1.3-3.9,3.9-3.9h8c2.6,0,3.9,1.3,3.9,3.9v12.2c0,2.6-1.3,3.9-3.9,3.9h-8
			C242,112.3,240.7,111.1,240.7,108.5z M250.6,107.9c0.4,0,0.5-0.1,0.5-0.5v-10c0-0.4-0.1-0.5-0.5-0.5h-4c-0.4,0-0.5,0.1-0.5,0.5v10
			c0,0.4,0.1,0.5,0.5,0.5H250.6z"/>
		<path d="M275.9,112.3h-5.4l-3.4-6.6H265v6.6h-5.3V92.4h11.7c2.6,0,3.9,1.3,3.9,3.9v5.2c0,2.2-0.9,3.4-2.7,3.8L275.9,112.3z
			 M269.3,101.5c0.4,0,0.5-0.1,0.5-0.5v-3.7c0-0.4-0.1-0.5-0.5-0.5H265v4.7H269.3z"/>
		<path d="M281.7,97h-5v-4.5H292V97h-5v15.3h-5.3V97z"/>
		<path d="M293.4,108.5v-2.7h5.3v1.8c0,0.4,0.1,0.5,0.5,0.5h3.7c0.4,0,0.5-0.1,0.5-0.5v-1.7c0-0.3-0.1-0.4-0.6-0.5l-5.3-1.4
			c-2.8-0.8-4.1-1.3-4.1-4.1v-3.5c0-2.6,1.2-3.9,3.9-3.9h7.2c2.6,0,3.9,1.3,3.9,3.9v2.5h-5.3v-1.6c0-0.4-0.1-0.5-0.5-0.5h-3.3
			c-0.4,0-0.5,0.1-0.5,0.5v1.5c0,0.3,0.1,0.4,0.6,0.5l5.3,1.4c2.8,0.7,4.1,1.3,4.1,4.1v3.7c0,2.6-1.3,3.9-3.9,3.9h-7.6
			C294.6,112.3,293.4,111.1,293.4,108.5z"/>
	</g>
	<g>
		<g>
			<path d="M110.9,33.3H90.5l-6.7,20.2c0,0,19.8,0,29,0c8.1,0,9.7-6.5,9.7-6.5l9.6-28.8c0,0-27.9,0-29.8,0l0,0c0,0,0,0,0,0
				c-0.1,0-0.1,0-0.1,0l0,0c-6.6,0.1-8.6,5.8-8.8,6.3l0,0c0,0-1.7,5.2-1.7,5.2H108l2.1-6.2c0.5-1.5,1.6-1.3,3.1-1.3
				c1.5,0,1,1.6,1,1.6L110.9,33.3z M105.9,48.5c-0.5,1.5-1.6,1.3-3.1,1.3c-1.1,0-1.1-0.9-1-1.3l2.8-8.8l0.6-1.8l4.1,0L105.9,48.5z"
				/>
			<path d="M175.2,53.8c0,0,7,0.3,10-7.4c3-7.7,9.5-28.1,9.5-28.1h-16.6c0,0-8.1,24.2-8.1,24.4c-0.3,1-1.5,4.6-2,5.9
				c-0.5,1.5-1.6,1.3-3.1,1.3c-1.1,0-1.1-0.9-1-1.3c0-0.1,10-30.2,10-30.2c0,0-16.1,0-16.1,0h-0.1c-0.1,0.3-8.1,24.2-8.1,24.4
				c-0.3,1-1.5,4.6-2,5.9c-0.5,1.5-1.6,1.3-3.1,1.3c-1.1,0-1.1-0.9-1-1.3c0-0.1,10-30.1,10-30.2l-0.5,0l-11,0c0,0-5.5-0.2-8.1,8.6
				l-8.9,27L175.2,53.8z"/>
			<path d="M212.3,37.9c0,0,0,0.1-0.1,0.3c-0.3,1-1.4,4.3-1.4,4.4c-0.3,1-1.5,4.6-2,5.9c-0.5,1.5-1.6,1.3-3.1,1.3
				c-1.1,0-1.1-0.9-1-1.3c0-0.1,1.8-5.5,2.3-7h-15.7l-4,12c0,0,22.2,0,29.3,0c7.1,0,8.9-6.4,8.9-6.4l4.5-13.7l-20.6,0l0,0
				c0,0,1.5-4,1.5-4.2c0.3-1,1.5-4.6,2-5.9c0.5-1.5,1.6-1.3,3.1-1.3c1.1,0,1.1,0.9,1,1.3c0,0.1-1.5,4.6-2.1,6.6l16.2,0l3.9-11.6
				c0,0-17.3,0-26.7,0c-9.4,0-11.4,6.2-11.4,6.2l-4.4,13.4L212.3,37.9z"/>
		</g>
		<path d="M256.5,0L89.2,0l0,0c-8.4,0-12.4,6.4-13.5,9.8C75.2,11.2,71,24.4,71,24.4L55.6,72.1l173.9,0c0.1,0,0.2,0,0.3,0
			c4.6,0,10.8-2.5,13.3-9.6l0-0.1l0-0.1l18-56l2-6.3L256.5,0z M238.5,60.9c-2.1,6.1-7.6,6.4-8.7,6.4c-0.1,0-0.2,0-0.2,0
			c-8.7,0-167.4,0-167.4,0c0,0,16.7-51.9,18.1-56c0,0,1.8-6.4,8.8-6.4c0,0,0,0,0,0l167.4,0L238.5,60.9z"/>
	</g>
</g>
</svg>
